<svg width="19" height="25" viewBox="0 0 19 25" fill="none" xmlns="http://www.w3.org/2000/svg">
<path d="M15.375 16.7656H18.375C18.2188 18.2031 17.8073 19.4896 17.1406 20.625C16.474 21.7604 15.5312 22.6615 14.3125 23.3281C13.0938 23.9844 11.5729 24.3125 9.75 24.3125C8.41667 24.3125 7.20312 24.0625 6.10938 23.5625C5.02604 23.0625 4.09375 22.3542 3.3125 21.4375C2.53125 20.5104 1.92708 19.401 1.5 18.1094C1.08333 16.8073 0.875 15.3594 0.875 13.7656V11.5C0.875 9.90625 1.08333 8.46354 1.5 7.17188C1.92708 5.86979 2.53646 4.75521 3.32812 3.82812C4.13021 2.90104 5.09375 2.1875 6.21875 1.6875C7.34375 1.1875 8.60938 0.9375 10.0156 0.9375C11.7344 0.9375 13.1875 1.26042 14.375 1.90625C15.5625 2.55208 16.4844 3.44792 17.1406 4.59375C17.8073 5.72917 18.2188 7.04688 18.375 8.54688H15.375C15.2292 7.48438 14.9583 6.57292 14.5625 5.8125C14.1667 5.04167 13.6042 4.44792 12.875 4.03125C12.1458 3.61458 11.1927 3.40625 10.0156 3.40625C9.00521 3.40625 8.11458 3.59896 7.34375 3.98438C6.58333 4.36979 5.94271 4.91667 5.42188 5.625C4.91146 6.33333 4.52604 7.18229 4.26562 8.17188C4.00521 9.16146 3.875 10.2604 3.875 11.4688V13.7656C3.875 14.8802 3.98958 15.9271 4.21875 16.9062C4.45833 17.8854 4.81771 18.7448 5.29688 19.4844C5.77604 20.224 6.38542 20.8073 7.125 21.2344C7.86458 21.651 8.73958 21.8594 9.75 21.8594C11.0312 21.8594 12.0521 21.6562 12.8125 21.25C13.5729 20.8438 14.1458 20.2604 14.5312 19.5C14.9271 18.7396 15.2083 17.8281 15.375 16.7656Z" fill="#3974A4"/>
</svg>
