<svg width="37" height="46" viewBox="0 0 37 46" fill="none" xmlns="http://www.w3.org/2000/svg">
<path d="M23.8766 20.3017L21.8531 26.4551L27.1719 30.4494L20.5812 30.4494L18.5 36.4948L16.4187 30.4494L9.82813 30.4494L15.2047 26.4551L13.1812 20.3017L18.5 24.1341L23.8766 20.3017ZM32.375 0.222237L32.375 16.9012C33.8396 18.4125 34.9766 20.1398 35.7859 22.083C36.5953 24.0261 37 26.0953 37 28.2903C37 33.1123 35.2078 37.1965 31.6234 40.5431C28.0391 43.8897 23.6646 45.563 18.5 45.563C13.3354 45.563 8.96094 43.8897 5.37656 40.5431C1.79219 37.1965 2.77916e-06 33.1123 2.37811e-06 28.2903C2.19554e-06 26.0953 0.404689 24.0261 1.21406 22.083C2.02344 20.1398 3.16042 18.4125 4.625 16.9012L4.625 0.22224L18.5 4.54041L32.375 0.222237ZM18.5 15.3358C14.6458 15.3358 11.3698 16.5953 8.67187 19.1142C5.97396 21.6331 4.625 24.6919 4.625 28.2903C4.625 31.8888 5.97396 34.9475 8.67188 37.4664C11.3698 39.9854 14.6458 41.2448 18.5 41.2448C22.3542 41.2448 25.6302 39.9854 28.3281 37.4664C31.026 34.9475 32.375 31.8888 32.375 28.2903C32.375 24.6918 31.026 21.6331 28.3281 19.1142C25.6302 16.5953 22.3542 15.3358 18.5 15.3358ZM27.75 6.64551L18.5 8.85858L9.25 6.64551L9.25 13.3387C10.599 12.619 12.0539 12.0522 13.6148 11.6384C15.1758 11.2246 16.8042 11.0177 18.5 11.0177C20.1958 11.0177 21.8242 11.2246 23.3852 11.6384C24.9461 12.0522 26.401 12.619 27.75 13.3387L27.75 6.64551Z" fill="black"/>
</svg>
