<svg width="38" height="38" viewBox="0 0 38 38" fill="none" xmlns="http://www.w3.org/2000/svg">
<path d="M4.33335 37.4035C3.32502 37.4035 2.46183 36.9547 1.74377 36.0571C1.02571 35.1596 0.666687 34.0806 0.666687 32.8202V5.32015C0.666687 4.05973 1.02571 2.98074 1.74377 2.08317C2.46183 1.1856 3.32502 0.736816 4.33335 0.736816H33.6667C34.675 0.736816 35.5382 1.1856 36.2563 2.08317C36.9743 2.98074 37.3334 4.05973 37.3334 5.32015V32.8202C37.3334 34.0806 36.9743 35.1596 36.2563 36.0571C35.5382 36.9547 34.675 37.4035 33.6667 37.4035H4.33335ZM19 21.3618L4.33335 9.90348V32.8202H33.6667V9.90348L19 21.3618ZM19 16.7785L33.6667 5.32015H4.33335L19 16.7785ZM4.33335 9.90348V5.32015V32.8202V9.90348Z" fill="white"/>
</svg>
