<svg width="40" height="36" viewBox="0 0 40 36" fill="none" xmlns="http://www.w3.org/2000/svg">
<path d="M19.7285 35.4189L27.9638 14.3293H31.7647L40 35.4189H36.1991L34.2986 30.0586H25.5204L23.5294 35.4189H19.7285ZM26.6063 26.983H33.1222L29.9548 18.2836H29.7738L26.6063 26.983ZM5.42986 30.1465L2.89593 27.686L12.0362 18.8108C10.8899 17.5806 9.88688 16.3064 9.02715 14.9883C8.16742 13.6702 7.42081 12.2789 6.78733 10.8143H10.5882C11.1312 11.8688 11.7119 12.8208 12.3303 13.6702C12.9487 14.5197 13.6953 15.413 14.5701 16.3504C15.8974 14.9444 16.9985 13.5018 17.8733 12.0226C18.7481 10.5434 19.4872 8.96899 20.0905 7.2994H0V3.78447H12.6697V0.269531H16.2896V3.78447H28.9593V7.2994H23.7104C23.0769 9.37907 22.2172 11.4002 21.1312 13.3627C20.0452 15.3252 18.7029 17.1705 17.1041 18.8987L21.448 23.2045L20.0905 26.8073L14.4796 21.3591L5.42986 30.1465Z" fill="black"/>
</svg>
