<svg width="42" height="43" viewBox="0 0 42 43" fill="none" xmlns="http://www.w3.org/2000/svg">
<path d="M5 0.570312C2.25048 0.570312 0 2.8208 0 5.57031V37.5703C0 40.3198 2.25048 42.5703 5 42.5703H37C39.7495 42.5703 42 40.3198 42 37.5703V5.57031C42 2.8208 39.7495 0.570312 37 0.570312H5ZM5 2.57031H37C38.6685 2.57031 40 3.90183 40 5.57031V37.5703C40 39.2388 38.6685 40.5703 37 40.5703H5C3.33152 40.5703 2 39.2388 2 37.5703V5.57031C2 3.90183 3.33152 2.57031 5 2.57031ZM10 7.58203C8.90478 7.58203 7.91922 7.90939 7.18945 8.52344C6.45969 9.13748 6.01172 10.0548 6.01172 11.0371C6.01172 12.9043 7.63129 14.3599 9.69141 14.5039L9.69531 14.5059C9.79348 14.5393 9.8963 14.5571 10 14.5586C12.273 14.5586 13.9883 12.9664 13.9883 11.0371C13.9881 11.0195 13.9874 11.0019 13.9863 10.9844C13.8846 9.08414 12.1904 7.58203 10 7.58203ZM10 9.55859C11.3922 9.55859 11.942 10.1804 12.002 11.0625C11.9898 11.9187 11.4601 12.582 10 12.582C8.61459 12.582 7.98828 11.8725 7.98828 11.0371C7.98828 10.6194 8.1407 10.3046 8.46094 10.0352C8.78117 9.7657 9.29522 9.55859 10 9.55859ZM7 15.5703C6.73479 15.5703 6.48045 15.6757 6.29292 15.8632C6.10539 16.0508 6.00003 16.3051 6 16.5703V35.5703C6.00003 35.8355 6.10539 36.0899 6.29292 36.2774C6.48045 36.4649 6.73479 36.5703 7 36.5703H13C13.2652 36.5703 13.5195 36.4649 13.7071 36.2774C13.8946 36.0899 14 35.8355 14 35.5703V29.7051V16.5703C14 16.3051 13.8946 16.0508 13.7071 15.8632C13.5195 15.6757 13.2652 15.5703 13 15.5703H7ZM16 15.5703C15.7348 15.5703 15.4805 15.6757 15.2929 15.8632C15.1054 16.0508 15 16.3051 15 16.5703V35.5703C15 35.8355 15.1054 36.0899 15.2929 36.2774C15.4805 36.4649 15.7348 36.5703 16 36.5703H22C22.2652 36.5703 22.5195 36.4649 22.7071 36.2774C22.8946 36.0899 23 35.8355 23 35.5703V25.5703C23 24.7406 23.2264 23.9153 23.625 23.375C24.0236 22.8347 24.5265 22.5104 25.4824 22.5273C26.4682 22.5443 26.99 22.882 27.3848 23.4121C27.7795 23.9422 28 24.737 28 25.5703V35.5703C28 35.8355 28.1054 36.0899 28.2929 36.2774C28.4805 36.4649 28.7348 36.5703 29 36.5703H35C35.2652 36.5703 35.5195 36.4649 35.7071 36.2774C35.8946 36.0899 36 35.8355 36 35.5703V24.832C36 21.8705 35.1228 19.5246 33.6191 17.9375C32.1155 16.3504 30.0242 15.5703 27.8125 15.5703C25.7105 15.5703 24.1109 16.2752 23 16.9941V16.5703C23 16.3051 22.8946 16.0508 22.7071 15.8632C22.5195 15.6757 22.2652 15.5703 22 15.5703H16ZM8 17.5703H12V29.7051V34.5703H8V17.5703ZM17 17.5703H21V19.1309C21.0001 19.3405 21.066 19.5449 21.1886 19.7151C21.3111 19.8852 21.4841 20.0125 21.6829 20.079C21.8818 20.1455 22.0965 20.1479 22.2968 20.0857C22.497 20.0235 22.6726 19.8999 22.7988 19.7324C22.7988 19.7324 24.3692 17.5703 27.8125 17.5703C29.5658 17.5703 31.0694 18.1529 32.168 19.3125C33.2666 20.4721 34 22.2586 34 24.832V34.5703H30V25.5703C30 24.4036 29.7205 23.1974 28.9902 22.2168C28.26 21.2362 27.0318 20.5534 25.5176 20.5273C23.9955 20.5003 22.7475 21.1973 22.0156 22.1895C21.2837 23.1816 21 24.4 21 25.5703V34.5703H17V17.5703Z" fill="white"/>
</svg>
