<svg width="39" height="30" viewBox="0 0 39 30" fill="none" xmlns="http://www.w3.org/2000/svg">
<path d="M22.75 10.9015V7.76042C23.7125 7.32928 24.6969 7.00593 25.7031 6.79036C26.7094 6.5748 27.7667 6.46701 28.875 6.46701C29.6333 6.46701 30.3771 6.5286 31.1062 6.65178C31.8354 6.77497 32.55 6.92894 33.25 7.11371V10.0701C32.55 9.79291 31.8427 9.58504 31.1281 9.44646C30.4135 9.30788 29.6625 9.23859 28.875 9.23859C27.7667 9.23859 26.7021 9.38487 25.6812 9.67742C24.6604 9.96998 23.6833 10.378 22.75 10.9015ZM22.75 21.064V17.9229C23.7125 17.4917 24.6969 17.1684 25.7031 16.9528C26.7094 16.7372 27.7667 16.6295 28.875 16.6295C29.6333 16.6295 30.3771 16.6911 31.1062 16.8142C31.8354 16.9374 32.55 17.0914 33.25 17.2762V20.2325C32.55 19.9554 31.8427 19.7475 31.1281 19.6089C30.4135 19.4703 29.6625 19.401 28.875 19.401C27.7667 19.401 26.7021 19.5396 25.6812 19.8168C24.6604 20.0939 23.6833 20.5097 22.75 21.064ZM22.75 15.9828V12.8416C23.7125 12.4105 24.6969 12.0872 25.7031 11.8716C26.7094 11.656 27.7667 11.5482 28.875 11.5482C29.6333 11.5482 30.3771 11.6098 31.1062 11.733C31.8354 11.8562 32.55 12.0102 33.25 12.1949V15.1513C32.55 14.8741 31.8427 14.6663 31.1281 14.5277C30.4135 14.3891 29.6625 14.3198 28.875 14.3198C27.7667 14.3198 26.7021 14.4661 25.6812 14.7586C24.6604 15.0512 23.6833 15.4592 22.75 15.9828ZM9.625 22.1726C10.9958 22.1726 12.3302 22.3343 13.6281 22.6576C14.926 22.981 16.2167 23.466 17.5 24.1127V5.9127C16.3042 5.17361 15.0354 4.6193 13.6937 4.24975C12.3521 3.88021 10.9958 3.69544 9.625 3.69544C8.575 3.69544 7.53229 3.80322 6.49687 4.01879C5.46146 4.23435 4.4625 4.5577 3.5 4.98884V23.2812C4.52083 22.9117 5.53437 22.6345 6.54063 22.4498C7.54688 22.265 8.575 22.1726 9.625 22.1726ZM21 24.1127C22.2833 23.466 23.574 22.981 24.8719 22.6576C26.1698 22.3343 27.5042 22.1726 28.875 22.1726C29.925 22.1726 30.9531 22.265 31.9594 22.4498C32.9656 22.6345 33.9792 22.9117 35 23.2812V4.98884C34.0375 4.5577 33.0385 4.23435 32.0031 4.01879C30.9677 3.80322 29.925 3.69544 28.875 3.69544C27.5042 3.69544 26.1479 3.88021 24.8062 4.24975C23.4646 4.6193 22.1958 5.17361 21 5.9127V24.1127ZM19.25 29.5635C17.85 28.3933 16.3333 27.4848 14.7 26.8381C13.0667 26.1914 11.375 25.8681 9.625 25.8681C8.4 25.8681 7.19688 26.0374 6.01562 26.3762C4.83437 26.7149 3.70417 27.1923 2.625 27.8082C2.0125 28.1469 1.42188 28.1315 0.853125 27.762C0.284375 27.3924 0 26.8535 0 26.1452V3.88021C0 3.54146 0.0802083 3.21811 0.240625 2.91016C0.401042 2.6022 0.641667 2.37124 0.9625 2.21726C2.30417 1.47817 3.70417 0.923859 5.1625 0.554315C6.62083 0.184772 8.10833 0 9.625 0C11.3167 0 12.9719 0.230965 14.5906 0.692894C16.2094 1.15482 17.7625 1.84772 19.25 2.77158C20.7375 1.84772 22.2906 1.15482 23.9094 0.692894C25.5281 0.230965 27.1833 0 28.875 0C30.3917 0 31.8792 0.184772 33.3375 0.554315C34.7958 0.923859 36.1958 1.47817 37.5375 2.21726C37.8583 2.37124 38.099 2.6022 38.2594 2.91016C38.4198 3.21811 38.5 3.54146 38.5 3.88021V26.1452C38.5 26.8535 38.2156 27.3924 37.6469 27.762C37.0781 28.1315 36.4875 28.1469 35.875 27.8082C34.7958 27.1923 33.6656 26.7149 32.4844 26.3762C31.3031 26.0374 30.1 25.8681 28.875 25.8681C27.125 25.8681 25.4333 26.1914 23.8 26.8381C22.1667 27.4848 20.65 28.3933 19.25 29.5635Z" fill="black"/>
</svg>
