<svg width="34" height="31" viewBox="0 0 34 31" fill="none" xmlns="http://www.w3.org/2000/svg">
<path d="M31.7812 30.4177C27.875 30.4177 24.0156 29.6502 20.2031 28.1152C16.3906 26.5803 12.9219 24.4046 9.79688 21.5881C6.67188 18.7717 4.25781 15.6454 2.55469 12.2093C0.851562 8.77325 0 5.29493 0 1.77437C0 1.2674 0.1875 0.844936 0.5625 0.506962C0.9375 0.168987 1.40625 0 1.96875 0H9.5625C10 0 10.3906 0.133782 10.7344 0.401345C11.0781 0.668908 11.2812 0.985759 11.3438 1.3519L12.5625 7.26645C12.625 7.71708 12.6094 8.0973 12.5156 8.40711C12.4219 8.71692 12.25 8.98449 12 9.2098L7.45312 13.35C8.07812 14.3921 8.82031 15.399 9.67969 16.3706C10.5391 17.3423 11.4844 18.2788 12.5156 19.18C13.4844 20.0532 14.5 20.8629 15.5625 21.6092C16.625 22.3556 17.75 23.0386 18.9375 23.6582L23.3438 19.687C23.625 19.4335 23.9922 19.2434 24.4453 19.1167C24.8984 18.9899 25.3438 18.9547 25.7812 19.0111L32.25 20.194C32.6875 20.3066 33.0469 20.5108 33.3281 20.8066C33.6094 21.1023 33.75 21.4332 33.75 21.7994V28.6433C33.75 29.1503 33.5625 29.5728 33.1875 29.9107C32.8125 30.2487 32.3438 30.4177 31.7812 30.4177ZM5.67188 10.1392L8.76562 7.35094L7.96875 3.37974H3.79688C3.95312 4.53449 4.17188 5.67515 4.45312 6.80174C4.73438 7.92832 5.14062 9.04082 5.67188 10.1392ZM22.4531 25.2636C23.6719 25.7424 24.9141 26.1226 26.1797 26.4043C27.4453 26.6859 28.7188 26.869 30 26.9535V23.2357L25.5938 22.4331L22.4531 25.2636Z" fill="#FCDFDF"/>
</svg>
