<svg width="40" height="25" viewBox="0 0 40 25" fill="none" xmlns="http://www.w3.org/2000/svg">
<path d="M0 24.4329V0.776871H7.56757C8.43243 0.776871 9.18919 1.36827 9.83784 2.55107C10.4865 3.73388 10.8108 5.11381 10.8108 6.69088V10.6336C10.8108 12.2106 10.4865 13.5906 9.83784 14.7734C9.18919 15.9562 8.43243 16.5476 7.56757 16.5476H3.24324V24.4329H0ZM14.0541 24.4329V0.776871H17.2973V8.66222H21.6216V0.776871H24.8649V24.4329H21.6216V14.5762H17.2973V24.4329H14.0541ZM29.1892 24.4329V0.776871H36.7568C37.6216 0.776871 38.3784 1.36827 39.027 2.55107C39.6757 3.73388 40 5.11381 40 6.69088V10.6336C40 12.2106 39.6757 13.5906 39.027 14.7734C38.3784 15.9562 37.6216 16.5476 36.7568 16.5476H32.4324V24.4329H29.1892ZM3.24324 10.6336H7.56757V6.69088H3.24324V10.6336ZM32.4324 10.6336H36.7568V6.69088H32.4324V10.6336Z" fill="#3B77A7"/>
</svg>
