<svg width="79" height="25" viewBox="0 0 79 25" fill="none" xmlns="http://www.w3.org/2000/svg">
<path d="M13.6562 0.25H16.6562V15.6406C16.6562 17.349 16.276 18.7708 15.5156 19.9062C14.7552 21.0417 13.7448 21.8958 12.4844 22.4688C11.2344 23.0312 9.875 23.3125 8.40625 23.3125C6.86458 23.3125 5.46875 23.0312 4.21875 22.4688C2.97917 21.8958 1.99479 21.0417 1.26562 19.9062C0.546875 18.7708 0.1875 17.349 0.1875 15.6406V0.25H3.17188V15.6406C3.17188 16.8281 3.39062 17.8073 3.82812 18.5781C4.26562 19.349 4.875 19.9219 5.65625 20.2969C6.44792 20.6719 7.36458 20.8594 8.40625 20.8594C9.45833 20.8594 10.375 20.6719 11.1562 20.2969C11.9479 19.9219 12.5625 19.349 13 18.5781C13.4375 17.8073 13.6562 16.8281 13.6562 15.6406V0.25Z" fill="#3F7DAE"/>
<path d="M23.3438 0.25L28.8125 8.96875L34.2812 0.25H37.7969L30.6094 11.5156L37.9688 23H34.4219L28.8125 14.1094L23.2031 23H19.6562L27.0156 11.5156L19.8281 0.25H23.3438Z" fill="#3F7DAE"/>
<path d="M51.0781 0.25L41.5938 24.9531H39.1094L48.6094 0.25H51.0781Z" fill="#3F7DAE"/>
<path d="M67.6875 0.25H70.6875V15.6406C70.6875 17.349 70.3073 18.7708 69.5469 19.9062C68.7865 21.0417 67.776 21.8958 66.5156 22.4688C65.2656 23.0312 63.9062 23.3125 62.4375 23.3125C60.8958 23.3125 59.5 23.0312 58.25 22.4688C57.0104 21.8958 56.026 21.0417 55.2969 19.9062C54.5781 18.7708 54.2188 17.349 54.2188 15.6406V0.25H57.2031V15.6406C57.2031 16.8281 57.4219 17.8073 57.8594 18.5781C58.2969 19.349 58.9062 19.9219 59.6875 20.2969C60.4792 20.6719 61.3958 20.8594 62.4375 20.8594C63.4896 20.8594 64.4062 20.6719 65.1875 20.2969C65.9792 19.9219 66.5938 19.349 67.0312 18.5781C67.4688 17.8073 67.6875 16.8281 67.6875 15.6406V0.25Z" fill="#3F7DAE"/>
<path d="M78.6562 0.25V23H75.6406V0.25H78.6562Z" fill="#3F7DAE"/>
</svg>
