<svg width="141" height="30" viewBox="0 0 141 30" fill="none" xmlns="http://www.w3.org/2000/svg">
<mask id="path-1-outside-1_9_3" maskUnits="userSpaceOnUse" x="0.0159912" y="0.30603" width="141" height="30" fill="black">
<rect fill="white" x="0.0159912" y="0.30603" width="141" height="30"/>
<path d="M14.21 28.396C10.022 28.396 6.77599 27.268 4.47199 25.012C2.16799 22.744 1.01599 19.534 1.01599 15.382C1.01599 12.598 1.54999 10.15 2.61799 8.03803C3.69799 5.92603 5.23399 4.27603 7.22599 3.08803C9.22999 1.90003 11.624 1.30603 14.408 1.30603C16.304 1.30603 17.918 1.55203 19.25 2.04403C20.582 2.52403 21.77 3.28603 22.814 4.33003L21.518 6.43603C19.85 4.84003 17.456 4.04203 14.336 4.04203C12.2 4.04203 10.376 4.52803 8.86399 5.50003C7.35199 6.46003 6.19999 7.77403 5.40799 9.44203C4.61599 11.11 4.21999 13.012 4.21999 15.148C4.21999 18.472 5.08999 21.058 6.82999 22.906C8.58199 24.742 11.126 25.66 14.462 25.66C15.554 25.66 16.574 25.6 17.522 25.48C18.482 25.348 19.364 25.12 20.168 24.796V17.056H13.67V14.374H23.264V26.542C21.956 27.154 20.564 27.616 19.088 27.928C17.624 28.24 15.998 28.396 14.21 28.396Z"/>
<path d="M35.6069 28.396C34.4429 28.396 33.3329 28.174 32.2769 27.73C31.2209 27.274 30.3689 26.536 29.7209 25.516C29.0729 24.496 28.7729 23.134 28.8209 21.43L28.9289 17.524C28.9889 15.604 28.9289 14.11 28.7489 13.042C28.5809 11.962 28.3949 11.2 28.1909 10.756C27.9989 10.3 27.8909 10.048 27.8669 10L30.8369 9.53203C30.8729 9.59203 30.9869 9.83203 31.1789 10.252C31.3709 10.672 31.5509 11.434 31.7189 12.538C31.8989 13.63 31.9589 15.214 31.8989 17.29L31.7909 21.43C31.7669 22.606 31.9589 23.518 32.3669 24.166C32.7749 24.814 33.3089 25.27 33.9689 25.534C34.6409 25.786 35.3369 25.912 36.0569 25.912C37.0529 25.912 37.9589 25.69 38.7749 25.246C39.6029 24.802 40.2629 24.166 40.7549 23.338C41.2589 22.498 41.5109 21.49 41.5109 20.314V9.53203H44.4629V22.564C44.4629 23.872 44.6789 24.748 45.1109 25.192C45.5429 25.624 46.1729 25.75 47.0009 25.57L46.7129 28.054C45.2969 28.318 44.1749 28.156 43.3469 27.568C42.5309 26.98 42.0689 26.14 41.9609 25.048C40.5809 27.28 38.4629 28.396 35.6069 28.396Z"/>
<path d="M56.1489 28.396C54.7569 28.396 53.5089 28.21 52.4049 27.838C51.3009 27.466 50.4129 27.094 49.7409 26.722L50.6409 24.184C51.3369 24.712 52.1649 25.132 53.1249 25.444C54.0969 25.756 55.0329 25.912 55.9329 25.912C56.9289 25.912 57.7749 25.714 58.4709 25.318C59.1789 24.91 59.5329 24.244 59.5329 23.32C59.5329 22.684 59.2929 22.15 58.8129 21.718C58.3449 21.274 57.7389 20.878 56.9949 20.53C56.2509 20.182 55.4589 19.828 54.6189 19.468C53.7909 19.108 53.0049 18.7 52.2609 18.244C51.5169 17.776 50.9169 17.212 50.4609 16.552C50.0049 15.892 49.7829 15.082 49.7949 14.122C49.8189 12.586 50.3829 11.374 51.4869 10.486C52.5909 9.58603 54.0669 9.13603 55.9149 9.13603C57.0909 9.13603 58.1649 9.28003 59.1369 9.56803C60.1209 9.85603 60.9909 10.198 61.7469 10.594L60.9549 13.024C60.1989 12.616 59.3889 12.292 58.5249 12.052C57.6729 11.8 56.8629 11.674 56.0949 11.674C55.0509 11.674 54.2229 11.884 53.6109 12.304C53.0109 12.712 52.7109 13.288 52.7109 14.032C52.7109 14.596 52.9449 15.082 53.4129 15.49C53.8929 15.898 54.5049 16.276 55.2489 16.624C55.9929 16.96 56.7789 17.308 57.6069 17.668C58.4469 18.028 59.2329 18.448 59.9649 18.928C60.7089 19.396 61.3089 19.96 61.7649 20.62C62.2209 21.28 62.4369 22.09 62.4129 23.05C62.3769 24.634 61.7949 25.924 60.6669 26.92C59.5509 27.904 58.0449 28.396 56.1489 28.396Z"/>
<path d="M73.9081 28.144C71.8201 28.144 70.3021 27.706 69.3541 26.83C68.4061 25.954 67.9321 24.544 67.9321 22.6V11.458H64.2781V9.53203H68.0221V4.63603L70.8841 3.79003V9.53203H76.9501V11.458H70.8841V22.636C70.8841 23.764 71.1541 24.586 71.6941 25.102C72.2341 25.606 73.0861 25.858 74.2501 25.858C74.5261 25.858 74.8801 25.822 75.3121 25.75C75.7561 25.678 76.2001 25.588 76.6441 25.48C77.0881 25.372 77.4481 25.264 77.7241 25.156L78.0661 27.37C77.5021 27.562 76.7941 27.742 75.9421 27.91C75.1021 28.066 74.4241 28.144 73.9081 28.144Z"/>
<path d="M87.7017 28.396C86.2017 28.396 84.8877 28.054 83.7597 27.37C82.6437 26.674 81.7737 25.708 81.1497 24.472C80.5257 23.224 80.2137 21.772 80.2137 20.116C80.2137 17.92 80.6457 16 81.5097 14.356C82.3737 12.712 83.5797 11.434 85.1277 10.522C86.6877 9.59803 88.5057 9.13603 90.5817 9.13603C91.7937 9.13603 92.9877 9.28003 94.1637 9.56803C95.3397 9.84403 96.2877 10.216 97.0077 10.684V22.852C97.0077 23.644 97.2117 24.286 97.6197 24.778C98.0397 25.258 98.5857 25.498 99.2577 25.498L98.6457 28.072C97.6017 28.072 96.6957 27.79 95.9277 27.226C95.1597 26.662 94.6737 25.924 94.4697 25.012C93.8577 26.032 92.9337 26.854 91.6977 27.478C90.4617 28.09 89.1297 28.396 87.7017 28.396ZM88.1517 25.912C89.3397 25.912 90.3717 25.648 91.2477 25.12C92.1357 24.58 92.8257 23.854 93.3177 22.942C93.8097 22.03 94.0557 20.998 94.0557 19.846V12.304C93.6837 12.112 93.1737 11.962 92.5257 11.854C91.8777 11.734 91.2117 11.674 90.5277 11.674C89.0757 11.674 87.8037 12.022 86.7117 12.718C85.6317 13.402 84.7857 14.362 84.1737 15.598C83.5737 16.834 83.2737 18.28 83.2737 19.936C83.2737 21.724 83.7177 23.17 84.6057 24.274C85.5057 25.366 86.6877 25.912 88.1517 25.912Z"/>
<path d="M108.295 28L100.573 9.53203H103.849L108.907 21.952C109.075 22.36 109.255 22.858 109.447 23.446C109.639 24.034 109.807 24.574 109.951 25.066C110.227 24.154 110.437 23.47 110.581 23.014C110.725 22.546 110.851 22.192 110.959 21.952L115.927 9.53203H119.113L111.319 28H108.295Z"/>
<path d="M130.501 28.396C128.593 28.396 126.925 28 125.497 27.208C124.069 26.404 122.953 25.282 122.149 23.842C121.357 22.402 120.961 20.722 120.961 18.802C120.961 16.87 121.357 15.178 122.149 13.726C122.941 12.274 124.051 11.146 125.479 10.342C126.919 9.53803 128.587 9.13603 130.483 9.13603C132.367 9.13603 134.011 9.53803 135.415 10.342C136.819 11.146 137.911 12.268 138.691 13.708C139.471 15.148 139.861 16.834 139.861 18.766C139.861 20.686 139.471 22.372 138.691 23.824C137.911 25.264 136.819 26.386 135.415 27.19C134.011 27.994 132.373 28.396 130.501 28.396ZM130.501 25.912C132.397 25.912 133.921 25.264 135.073 23.968C136.225 22.66 136.801 20.938 136.801 18.802C136.801 16.654 136.219 14.932 135.055 13.636C133.903 12.328 132.379 11.674 130.483 11.674C128.551 11.674 126.991 12.334 125.803 13.654C124.615 14.962 124.021 16.69 124.021 18.838C124.021 20.962 124.615 22.672 125.803 23.968C126.991 25.264 128.557 25.912 130.501 25.912Z"/>
</mask>
<path d="M14.21 28.396C10.022 28.396 6.77599 27.268 4.47199 25.012C2.16799 22.744 1.01599 19.534 1.01599 15.382C1.01599 12.598 1.54999 10.15 2.61799 8.03803C3.69799 5.92603 5.23399 4.27603 7.22599 3.08803C9.22999 1.90003 11.624 1.30603 14.408 1.30603C16.304 1.30603 17.918 1.55203 19.25 2.04403C20.582 2.52403 21.77 3.28603 22.814 4.33003L21.518 6.43603C19.85 4.84003 17.456 4.04203 14.336 4.04203C12.2 4.04203 10.376 4.52803 8.86399 5.50003C7.35199 6.46003 6.19999 7.77403 5.40799 9.44203C4.61599 11.11 4.21999 13.012 4.21999 15.148C4.21999 18.472 5.08999 21.058 6.82999 22.906C8.58199 24.742 11.126 25.66 14.462 25.66C15.554 25.66 16.574 25.6 17.522 25.48C18.482 25.348 19.364 25.12 20.168 24.796V17.056H13.67V14.374H23.264V26.542C21.956 27.154 20.564 27.616 19.088 27.928C17.624 28.24 15.998 28.396 14.21 28.396Z" fill="black"/>
<path d="M35.6069 28.396C34.4429 28.396 33.3329 28.174 32.2769 27.73C31.2209 27.274 30.3689 26.536 29.7209 25.516C29.0729 24.496 28.7729 23.134 28.8209 21.43L28.9289 17.524C28.9889 15.604 28.9289 14.11 28.7489 13.042C28.5809 11.962 28.3949 11.2 28.1909 10.756C27.9989 10.3 27.8909 10.048 27.8669 10L30.8369 9.53203C30.8729 9.59203 30.9869 9.83203 31.1789 10.252C31.3709 10.672 31.5509 11.434 31.7189 12.538C31.8989 13.63 31.9589 15.214 31.8989 17.29L31.7909 21.43C31.7669 22.606 31.9589 23.518 32.3669 24.166C32.7749 24.814 33.3089 25.27 33.9689 25.534C34.6409 25.786 35.3369 25.912 36.0569 25.912C37.0529 25.912 37.9589 25.69 38.7749 25.246C39.6029 24.802 40.2629 24.166 40.7549 23.338C41.2589 22.498 41.5109 21.49 41.5109 20.314V9.53203H44.4629V22.564C44.4629 23.872 44.6789 24.748 45.1109 25.192C45.5429 25.624 46.1729 25.75 47.0009 25.57L46.7129 28.054C45.2969 28.318 44.1749 28.156 43.3469 27.568C42.5309 26.98 42.0689 26.14 41.9609 25.048C40.5809 27.28 38.4629 28.396 35.6069 28.396Z" fill="black"/>
<path d="M56.1489 28.396C54.7569 28.396 53.5089 28.21 52.4049 27.838C51.3009 27.466 50.4129 27.094 49.7409 26.722L50.6409 24.184C51.3369 24.712 52.1649 25.132 53.1249 25.444C54.0969 25.756 55.0329 25.912 55.9329 25.912C56.9289 25.912 57.7749 25.714 58.4709 25.318C59.1789 24.91 59.5329 24.244 59.5329 23.32C59.5329 22.684 59.2929 22.15 58.8129 21.718C58.3449 21.274 57.7389 20.878 56.9949 20.53C56.2509 20.182 55.4589 19.828 54.6189 19.468C53.7909 19.108 53.0049 18.7 52.2609 18.244C51.5169 17.776 50.9169 17.212 50.4609 16.552C50.0049 15.892 49.7829 15.082 49.7949 14.122C49.8189 12.586 50.3829 11.374 51.4869 10.486C52.5909 9.58603 54.0669 9.13603 55.9149 9.13603C57.0909 9.13603 58.1649 9.28003 59.1369 9.56803C60.1209 9.85603 60.9909 10.198 61.7469 10.594L60.9549 13.024C60.1989 12.616 59.3889 12.292 58.5249 12.052C57.6729 11.8 56.8629 11.674 56.0949 11.674C55.0509 11.674 54.2229 11.884 53.6109 12.304C53.0109 12.712 52.7109 13.288 52.7109 14.032C52.7109 14.596 52.9449 15.082 53.4129 15.49C53.8929 15.898 54.5049 16.276 55.2489 16.624C55.9929 16.96 56.7789 17.308 57.6069 17.668C58.4469 18.028 59.2329 18.448 59.9649 18.928C60.7089 19.396 61.3089 19.96 61.7649 20.62C62.2209 21.28 62.4369 22.09 62.4129 23.05C62.3769 24.634 61.7949 25.924 60.6669 26.92C59.5509 27.904 58.0449 28.396 56.1489 28.396Z" fill="black"/>
<path d="M73.9081 28.144C71.8201 28.144 70.3021 27.706 69.3541 26.83C68.4061 25.954 67.9321 24.544 67.9321 22.6V11.458H64.2781V9.53203H68.0221V4.63603L70.8841 3.79003V9.53203H76.9501V11.458H70.8841V22.636C70.8841 23.764 71.1541 24.586 71.6941 25.102C72.2341 25.606 73.0861 25.858 74.2501 25.858C74.5261 25.858 74.8801 25.822 75.3121 25.75C75.7561 25.678 76.2001 25.588 76.6441 25.48C77.0881 25.372 77.4481 25.264 77.7241 25.156L78.0661 27.37C77.5021 27.562 76.7941 27.742 75.9421 27.91C75.1021 28.066 74.4241 28.144 73.9081 28.144Z" fill="black"/>
<path d="M87.7017 28.396C86.2017 28.396 84.8877 28.054 83.7597 27.37C82.6437 26.674 81.7737 25.708 81.1497 24.472C80.5257 23.224 80.2137 21.772 80.2137 20.116C80.2137 17.92 80.6457 16 81.5097 14.356C82.3737 12.712 83.5797 11.434 85.1277 10.522C86.6877 9.59803 88.5057 9.13603 90.5817 9.13603C91.7937 9.13603 92.9877 9.28003 94.1637 9.56803C95.3397 9.84403 96.2877 10.216 97.0077 10.684V22.852C97.0077 23.644 97.2117 24.286 97.6197 24.778C98.0397 25.258 98.5857 25.498 99.2577 25.498L98.6457 28.072C97.6017 28.072 96.6957 27.79 95.9277 27.226C95.1597 26.662 94.6737 25.924 94.4697 25.012C93.8577 26.032 92.9337 26.854 91.6977 27.478C90.4617 28.09 89.1297 28.396 87.7017 28.396ZM88.1517 25.912C89.3397 25.912 90.3717 25.648 91.2477 25.12C92.1357 24.58 92.8257 23.854 93.3177 22.942C93.8097 22.03 94.0557 20.998 94.0557 19.846V12.304C93.6837 12.112 93.1737 11.962 92.5257 11.854C91.8777 11.734 91.2117 11.674 90.5277 11.674C89.0757 11.674 87.8037 12.022 86.7117 12.718C85.6317 13.402 84.7857 14.362 84.1737 15.598C83.5737 16.834 83.2737 18.28 83.2737 19.936C83.2737 21.724 83.7177 23.17 84.6057 24.274C85.5057 25.366 86.6877 25.912 88.1517 25.912Z" fill="black"/>
<path d="M108.295 28L100.573 9.53203H103.849L108.907 21.952C109.075 22.36 109.255 22.858 109.447 23.446C109.639 24.034 109.807 24.574 109.951 25.066C110.227 24.154 110.437 23.47 110.581 23.014C110.725 22.546 110.851 22.192 110.959 21.952L115.927 9.53203H119.113L111.319 28H108.295Z" fill="black"/>
<path d="M130.501 28.396C128.593 28.396 126.925 28 125.497 27.208C124.069 26.404 122.953 25.282 122.149 23.842C121.357 22.402 120.961 20.722 120.961 18.802C120.961 16.87 121.357 15.178 122.149 13.726C122.941 12.274 124.051 11.146 125.479 10.342C126.919 9.53803 128.587 9.13603 130.483 9.13603C132.367 9.13603 134.011 9.53803 135.415 10.342C136.819 11.146 137.911 12.268 138.691 13.708C139.471 15.148 139.861 16.834 139.861 18.766C139.861 20.686 139.471 22.372 138.691 23.824C137.911 25.264 136.819 26.386 135.415 27.19C134.011 27.994 132.373 28.396 130.501 28.396ZM130.501 25.912C132.397 25.912 133.921 25.264 135.073 23.968C136.225 22.66 136.801 20.938 136.801 18.802C136.801 16.654 136.219 14.932 135.055 13.636C133.903 12.328 132.379 11.674 130.483 11.674C128.551 11.674 126.991 12.334 125.803 13.654C124.615 14.962 124.021 16.69 124.021 18.838C124.021 20.962 124.615 22.672 125.803 23.968C126.991 25.264 128.557 25.912 130.501 25.912Z" fill="black"/>
<path d="M14.21 28.396C10.022 28.396 6.77599 27.268 4.47199 25.012C2.16799 22.744 1.01599 19.534 1.01599 15.382C1.01599 12.598 1.54999 10.15 2.61799 8.03803C3.69799 5.92603 5.23399 4.27603 7.22599 3.08803C9.22999 1.90003 11.624 1.30603 14.408 1.30603C16.304 1.30603 17.918 1.55203 19.25 2.04403C20.582 2.52403 21.77 3.28603 22.814 4.33003L21.518 6.43603C19.85 4.84003 17.456 4.04203 14.336 4.04203C12.2 4.04203 10.376 4.52803 8.86399 5.50003C7.35199 6.46003 6.19999 7.77403 5.40799 9.44203C4.61599 11.11 4.21999 13.012 4.21999 15.148C4.21999 18.472 5.08999 21.058 6.82999 22.906C8.58199 24.742 11.126 25.66 14.462 25.66C15.554 25.66 16.574 25.6 17.522 25.48C18.482 25.348 19.364 25.12 20.168 24.796V17.056H13.67V14.374H23.264V26.542C21.956 27.154 20.564 27.616 19.088 27.928C17.624 28.24 15.998 28.396 14.21 28.396Z" stroke="black" stroke-width="2" mask="url(#path-1-outside-1_9_3)"/>
<path d="M35.6069 28.396C34.4429 28.396 33.3329 28.174 32.2769 27.73C31.2209 27.274 30.3689 26.536 29.7209 25.516C29.0729 24.496 28.7729 23.134 28.8209 21.43L28.9289 17.524C28.9889 15.604 28.9289 14.11 28.7489 13.042C28.5809 11.962 28.3949 11.2 28.1909 10.756C27.9989 10.3 27.8909 10.048 27.8669 10L30.8369 9.53203C30.8729 9.59203 30.9869 9.83203 31.1789 10.252C31.3709 10.672 31.5509 11.434 31.7189 12.538C31.8989 13.63 31.9589 15.214 31.8989 17.29L31.7909 21.43C31.7669 22.606 31.9589 23.518 32.3669 24.166C32.7749 24.814 33.3089 25.27 33.9689 25.534C34.6409 25.786 35.3369 25.912 36.0569 25.912C37.0529 25.912 37.9589 25.69 38.7749 25.246C39.6029 24.802 40.2629 24.166 40.7549 23.338C41.2589 22.498 41.5109 21.49 41.5109 20.314V9.53203H44.4629V22.564C44.4629 23.872 44.6789 24.748 45.1109 25.192C45.5429 25.624 46.1729 25.75 47.0009 25.57L46.7129 28.054C45.2969 28.318 44.1749 28.156 43.3469 27.568C42.5309 26.98 42.0689 26.14 41.9609 25.048C40.5809 27.28 38.4629 28.396 35.6069 28.396Z" stroke="black" stroke-width="2" mask="url(#path-1-outside-1_9_3)"/>
<path d="M56.1489 28.396C54.7569 28.396 53.5089 28.21 52.4049 27.838C51.3009 27.466 50.4129 27.094 49.7409 26.722L50.6409 24.184C51.3369 24.712 52.1649 25.132 53.1249 25.444C54.0969 25.756 55.0329 25.912 55.9329 25.912C56.9289 25.912 57.7749 25.714 58.4709 25.318C59.1789 24.91 59.5329 24.244 59.5329 23.32C59.5329 22.684 59.2929 22.15 58.8129 21.718C58.3449 21.274 57.7389 20.878 56.9949 20.53C56.2509 20.182 55.4589 19.828 54.6189 19.468C53.7909 19.108 53.0049 18.7 52.2609 18.244C51.5169 17.776 50.9169 17.212 50.4609 16.552C50.0049 15.892 49.7829 15.082 49.7949 14.122C49.8189 12.586 50.3829 11.374 51.4869 10.486C52.5909 9.58603 54.0669 9.13603 55.9149 9.13603C57.0909 9.13603 58.1649 9.28003 59.1369 9.56803C60.1209 9.85603 60.9909 10.198 61.7469 10.594L60.9549 13.024C60.1989 12.616 59.3889 12.292 58.5249 12.052C57.6729 11.8 56.8629 11.674 56.0949 11.674C55.0509 11.674 54.2229 11.884 53.6109 12.304C53.0109 12.712 52.7109 13.288 52.7109 14.032C52.7109 14.596 52.9449 15.082 53.4129 15.49C53.8929 15.898 54.5049 16.276 55.2489 16.624C55.9929 16.96 56.7789 17.308 57.6069 17.668C58.4469 18.028 59.2329 18.448 59.9649 18.928C60.7089 19.396 61.3089 19.96 61.7649 20.62C62.2209 21.28 62.4369 22.09 62.4129 23.05C62.3769 24.634 61.7949 25.924 60.6669 26.92C59.5509 27.904 58.0449 28.396 56.1489 28.396Z" stroke="black" stroke-width="2" mask="url(#path-1-outside-1_9_3)"/>
<path d="M73.9081 28.144C71.8201 28.144 70.3021 27.706 69.3541 26.83C68.4061 25.954 67.9321 24.544 67.9321 22.6V11.458H64.2781V9.53203H68.0221V4.63603L70.8841 3.79003V9.53203H76.9501V11.458H70.8841V22.636C70.8841 23.764 71.1541 24.586 71.6941 25.102C72.2341 25.606 73.0861 25.858 74.2501 25.858C74.5261 25.858 74.8801 25.822 75.3121 25.75C75.7561 25.678 76.2001 25.588 76.6441 25.48C77.0881 25.372 77.4481 25.264 77.7241 25.156L78.0661 27.37C77.5021 27.562 76.7941 27.742 75.9421 27.91C75.1021 28.066 74.4241 28.144 73.9081 28.144Z" stroke="black" stroke-width="2" mask="url(#path-1-outside-1_9_3)"/>
<path d="M87.7017 28.396C86.2017 28.396 84.8877 28.054 83.7597 27.37C82.6437 26.674 81.7737 25.708 81.1497 24.472C80.5257 23.224 80.2137 21.772 80.2137 20.116C80.2137 17.92 80.6457 16 81.5097 14.356C82.3737 12.712 83.5797 11.434 85.1277 10.522C86.6877 9.59803 88.5057 9.13603 90.5817 9.13603C91.7937 9.13603 92.9877 9.28003 94.1637 9.56803C95.3397 9.84403 96.2877 10.216 97.0077 10.684V22.852C97.0077 23.644 97.2117 24.286 97.6197 24.778C98.0397 25.258 98.5857 25.498 99.2577 25.498L98.6457 28.072C97.6017 28.072 96.6957 27.79 95.9277 27.226C95.1597 26.662 94.6737 25.924 94.4697 25.012C93.8577 26.032 92.9337 26.854 91.6977 27.478C90.4617 28.09 89.1297 28.396 87.7017 28.396ZM88.1517 25.912C89.3397 25.912 90.3717 25.648 91.2477 25.12C92.1357 24.58 92.8257 23.854 93.3177 22.942C93.8097 22.03 94.0557 20.998 94.0557 19.846V12.304C93.6837 12.112 93.1737 11.962 92.5257 11.854C91.8777 11.734 91.2117 11.674 90.5277 11.674C89.0757 11.674 87.8037 12.022 86.7117 12.718C85.6317 13.402 84.7857 14.362 84.1737 15.598C83.5737 16.834 83.2737 18.28 83.2737 19.936C83.2737 21.724 83.7177 23.17 84.6057 24.274C85.5057 25.366 86.6877 25.912 88.1517 25.912Z" stroke="black" stroke-width="2" mask="url(#path-1-outside-1_9_3)"/>
<path d="M108.295 28L100.573 9.53203H103.849L108.907 21.952C109.075 22.36 109.255 22.858 109.447 23.446C109.639 24.034 109.807 24.574 109.951 25.066C110.227 24.154 110.437 23.47 110.581 23.014C110.725 22.546 110.851 22.192 110.959 21.952L115.927 9.53203H119.113L111.319 28H108.295Z" stroke="black" stroke-width="2" mask="url(#path-1-outside-1_9_3)"/>
<path d="M130.501 28.396C128.593 28.396 126.925 28 125.497 27.208C124.069 26.404 122.953 25.282 122.149 23.842C121.357 22.402 120.961 20.722 120.961 18.802C120.961 16.87 121.357 15.178 122.149 13.726C122.941 12.274 124.051 11.146 125.479 10.342C126.919 9.53803 128.587 9.13603 130.483 9.13603C132.367 9.13603 134.011 9.53803 135.415 10.342C136.819 11.146 137.911 12.268 138.691 13.708C139.471 15.148 139.861 16.834 139.861 18.766C139.861 20.686 139.471 22.372 138.691 23.824C137.911 25.264 136.819 26.386 135.415 27.19C134.011 27.994 132.373 28.396 130.501 28.396ZM130.501 25.912C132.397 25.912 133.921 25.264 135.073 23.968C136.225 22.66 136.801 20.938 136.801 18.802C136.801 16.654 136.219 14.932 135.055 13.636C133.903 12.328 132.379 11.674 130.483 11.674C128.551 11.674 126.991 12.334 125.803 13.654C124.615 14.962 124.021 16.69 124.021 18.838C124.021 20.962 124.615 22.672 125.803 23.968C126.991 25.264 128.557 25.912 130.501 25.912Z" stroke="black" stroke-width="2" mask="url(#path-1-outside-1_9_3)"/>
</svg>
