<svg width="32" height="32" viewBox="0 0 32 32" fill="none" xmlns="http://www.w3.org/2000/svg">
<g clip-path="url(#clip0_9_29)">
<rect width="32" height="32" fill="white"/>
<path d="M16.4492 30.32C13.5692 30.32 11.1292 29.72 9.12922 28.52C7.12922 27.2933 5.60922 25.6 4.56922 23.44C3.55589 21.2533 3.04922 18.7333 3.04922 15.88C3.04922 13.72 3.32922 11.76 3.88922 10C4.47589 8.24 5.32922 6.72 6.44922 5.44C7.59589 4.13333 8.99589 3.13333 10.6492 2.44C12.3026 1.72 14.2092 1.36 16.3692 1.36C18.4759 1.36 20.3559 1.70667 22.0092 2.4C23.6892 3.06667 25.0626 4.05333 26.1292 5.36C27.2226 6.66667 27.9559 8.26667 28.3292 10.16H23.1692C22.9559 9.25333 22.5426 8.49333 21.9292 7.88C21.3426 7.26667 20.5959 6.8 19.6892 6.48C18.7826 6.16 17.7426 6 16.5692 6C15.0492 6 13.7559 6.26667 12.6892 6.8C11.6226 7.33333 10.7559 8.06667 10.0892 9C9.42255 9.90667 8.92922 10.96 8.60922 12.16C8.31589 13.3333 8.16922 14.5867 8.16922 15.92C8.16922 17.6533 8.44922 19.2667 9.00922 20.76C9.59589 22.2533 10.5026 23.4533 11.7292 24.36C12.9826 25.24 14.6092 25.68 16.6092 25.68C18.0226 25.68 19.2626 25.44 20.3292 24.96C21.4226 24.48 22.2759 23.7867 22.8892 22.88C23.5292 21.9467 23.8759 20.8 23.9292 19.44H15.6892V15.12H28.9692V16.96C28.9692 19.7067 28.4892 22.08 27.5292 24.08C26.5692 26.08 25.1559 27.6267 23.2892 28.72C21.4492 29.7867 19.1692 30.32 16.4492 30.32Z" fill="#00BC57"/>
</g>
<defs>
<clipPath id="clip0_9_29">
<rect width="32" height="32" fill="white"/>
</clipPath>
</defs>
</svg>
